<?xml version="1.0" standalone="no"?><!DOCTYPE svg PUBLIC "-//W3C//DTD SVG 1.1//EN" "http://www.w3.org/Graphics/SVG/1.1/DTD/svg11.dtd"><svg t="1567080331054" class="icon" viewBox="0 0 1024 1024" version="1.1" xmlns="http://www.w3.org/2000/svg" p-id="1095" xmlns:xlink="http://www.w3.org/1999/xlink" width="200" height="200"><defs><style type="text/css"></style></defs><path d="M312.17664 393.09312c11.32544 0 20.48-9.15456 20.48-20.48s-9.15456-20.48-20.48-20.48l-77.2096 0c-11.32544 0-20.48 9.15456-20.48 20.48l0 449.55648c0 11.32544 9.15456 20.48 20.48 20.48l449.55648 0c11.32544 0 20.48-9.15456 20.48-20.48l0-77.1072c0-11.32544-9.15456-20.48-20.48-20.48s-20.48 9.15456-20.48 20.48l0 56.6272L255.46752 801.6896 255.46752 393.09312 312.17664 393.09312z" p-id="1096"></path><path d="M849.38752 187.31008 399.81056 187.31008c-11.32544 0-20.48 9.15456-20.48 20.48l0 449.55648c0 11.32544 9.15456 20.48 20.48 20.48l449.55648 0c11.32544 0 20.48-9.15456 20.48-20.48L869.84704 207.79008C869.86752 196.46464 860.69248 187.31008 849.38752 187.31008zM828.90752 636.86656 420.29056 636.86656 420.29056 228.27008l408.59648 0L828.88704 636.86656z" p-id="1097"></path></svg>